<?xml version="1.0" standalone="no"?>
<!DOCTYPE svg PUBLIC "-//W3C//DTD SVG 20010904//EN"
 "http://www.w3.org/TR/2001/REC-SVG-20010904/DTD/svg10.dtd">
<svg version="1.0" xmlns="http://www.w3.org/2000/svg"
 width="500.000000pt" height="500.000000pt" viewBox="0 0 500.000000 500.000000"
 preserveAspectRatio="xMidYMid meet">
<metadata>
Created by potrace 1.11, written by Peter Selinger 2001-2013
</metadata>
<g transform="translate(0.000000,500.000000) scale(0.100000,-0.100000)"
fill="#000000" stroke="none">
<path d="M3255 4919 c-4 -6 -5 -12 -2 -15 2 -3 7 2 10 11 7 17 1 20 -8 4z"/>
<path d="M3205 4910 c6 -10 4 -12 -10 -6 -16 6 -16 4 -4 -10 13 -16 12 -16 -8
-6 -28 15 -36 15 -27 0 4 -7 -2 -4 -14 6 -12 11 -25 16 -29 13 -3 -4 -2 -7 4
-7 6 0 13 -6 16 -13 3 -8 -1 -14 -9 -14 -8 0 -14 5 -14 10 0 5 -12 6 -27 2
-24 -6 -25 -5 -12 12 13 17 13 17 -4 4 -10 -8 -15 -21 -12 -30 3 -10 -2 -8
-13 5 l-18 21 -23 -26 -22 -26 5 25 c3 14 3 19 0 13 -3 -7 -12 -13 -20 -13 -8
0 -14 -5 -14 -11 0 -5 6 -7 13 -3 8 6 8 3 -2 -9 -12 -15 -15 -15 -34 -2 -12 8
-26 15 -32 15 -5 0 -2 -5 8 -11 9 -5 17 -15 17 -22 0 -8 -3 -8 -8 -2 -10 14
-32 17 -32 5 0 -5 -5 -10 -11 -10 -5 0 -7 5 -3 11 4 8 0 8 -15 0 -11 -7 -21
-14 -21 -17 0 -3 4 -2 10 1 6 4 7 -1 3 -11 -4 -11 -8 -13 -11 -6 -5 17 -39 15
-50 -4 -8 -14 -11 -14 -27 2 -17 17 -17 17 -11 -3 5 -17 1 -25 -16 -34 -22
-12 -22 -11 -8 7 14 18 14 18 -2 5 -10 -7 -18 -10 -18 -5 0 4 -12 -3 -26 -17
-14 -13 -29 -24 -32 -24 -4 0 -6 -3 -4 -7 1 -5 -3 -8 -9 -8 -5 0 -7 -6 -3 -12
5 -9 2 -8 -9 1 -15 12 -17 12 -11 -2 4 -12 1 -15 -15 -12 -11 2 -23 -1 -27 -6
-3 -5 0 -8 7 -7 6 2 14 -3 17 -11 2 -8 0 -11 -6 -7 -6 3 -20 -6 -31 -20 -12
-15 -21 -23 -21 -19 0 5 7 16 16 26 12 13 12 19 3 25 -7 4 -10 3 -6 -3 5 -8
-33 -51 -40 -45 -11 9 -12 -2 -2 -20 12 -22 11 -22 -6 -8 -17 14 -18 13 -12
-3 4 -11 3 -16 -3 -12 -6 3 -10 -2 -10 -11 0 -16 -1 -16 -16 2 -8 10 -12 13
-8 5 5 -10 3 -13 -9 -8 -11 4 -14 2 -11 -7 3 -8 0 -17 -7 -22 -8 -4 -10 -3 -5
4 9 15 -6 16 -21 1 -7 -7 -10 -3 -8 15 2 14 -2 29 -7 33 -6 3 -9 2 -5 -3 3 -5
-2 -18 -10 -29 -15 -19 -15 -18 -9 10 6 26 6 28 -6 13 -13 -18 -73 -34 -63
-17 4 5 3 9 -2 10 -57 6 -61 5 -52 -13 13 -25 4 -23 -21 5 -12 12 -19 15 -15
7 3 -9 -3 -20 -16 -28 -12 -8 -18 -9 -15 -4 3 5 -1 15 -9 22 -13 11 -14 10 -8
-6 6 -17 5 -17 -10 -5 -16 12 -17 12 -10 -5 6 -17 5 -18 -12 -4 -11 9 -16 10
-11 3 4 -7 2 -13 -3 -13 -6 0 -11 5 -11 11 0 5 -5 7 -10 4 -6 -4 -7 -12 -3
-18 4 -7 -2 -5 -12 3 -17 14 -18 13 -12 -3 6 -16 5 -16 -20 0 -21 14 -25 15
-18 3 13 -21 15 -41 4 -34 -5 3 -7 9 -4 14 3 4 -2 10 -10 14 -8 3 -17 0 -21
-6 -5 -7 -2 -8 7 -4 8 4 6 1 -3 -7 -10 -8 -15 -17 -11 -21 4 -4 -1 -4 -11 0
-14 5 -15 9 -4 15 10 6 -23 6 -50 0 -1 -1 2 -11 8 -23 10 -21 10 -21 -3 -5
-17 20 -31 23 -24 4 4 -10 -2 -13 -21 -9 -26 4 -26 3 -8 -10 15 -12 16 -17 6
-23 -9 -5 -11 -4 -6 4 6 8 -2 11 -28 9 -19 -1 -32 -6 -30 -10 3 -5 9 -6 13 -4
4 3 8 -1 8 -9 0 -11 -5 -10 -24 2 -13 9 -23 12 -21 7 2 -5 -6 -20 -16 -34 -11
-14 -16 -18 -13 -7 4 9 2 17 -3 17 -6 0 -10 -5 -10 -11 0 -5 -5 -7 -12 -3 -7
5 -9 2 -6 -7 4 -10 -2 -15 -19 -17 -14 -1 -31 -6 -40 -10 -13 -8 -13 -10 1
-15 10 -4 15 -3 12 1 -3 5 1 9 8 9 11 0 12 -4 3 -18 -6 -10 -14 -15 -17 -11
-3 4 -13 8 -24 10 -12 2 -16 -1 -10 -9 5 -9 2 -10 -11 -5 -15 5 -16 4 -6 -8
10 -11 7 -17 -11 -30 -17 -12 -24 -13 -31 -3 -6 8 -7 5 -4 -9 4 -18 0 -22 -18
-19 -19 2 -22 -2 -21 -26 2 -22 -1 -26 -11 -17 -10 8 -13 6 -13 -9 0 -27 -11
-35 -28 -20 -13 11 -14 9 -2 -13 13 -24 12 -24 -5 -10 -17 14 -17 13 -10 -10
7 -22 6 -23 -9 -11 -15 13 -16 11 -6 -15 10 -28 9 -28 -6 -9 -16 20 -16 20
-11 -3 3 -12 1 -20 -4 -16 -5 3 -9 0 -9 -7 0 -6 -8 -18 -18 -26 -10 -9 -11
-12 -2 -7 12 5 12 4 3 -6 -6 -7 -9 -20 -7 -29 3 -9 -2 -5 -10 9 l-16 25 4 -25
c3 -14 5 -25 6 -25 1 0 3 -8 5 -18 2 -9 -1 -15 -6 -11 -5 3 -7 9 -5 13 3 4 -1
8 -9 8 -8 0 -13 -3 -10 -5 3 -3 0 -11 -6 -18 -7 -9 -7 -19 2 -36 11 -21 11
-22 -5 -9 -14 12 -16 12 -10 -4 6 -14 4 -16 -7 -10 -12 8 -12 6 0 -8 12 -15
11 -17 -5 -17 -16 0 -17 -1 -1 -12 13 -10 14 -17 6 -28 -9 -13 -10 -12 -5 3 3
11 2 16 -4 12 -6 -3 -10 -15 -10 -26 0 -13 4 -18 12 -13 7 4 8 3 4 -5 -6 -9
-11 -9 -24 1 -13 11 -15 11 -10 -3 8 -21 -34 -43 -51 -26 -8 8 -11 8 -11 -2 0
-7 -5 -9 -12 -5 -8 5 -9 2 -5 -9 5 -14 2 -15 -18 -7 -16 6 -25 6 -25 0 0 -6 5
-10 12 -10 6 0 8 -3 5 -6 -4 -4 -14 -1 -24 7 -15 12 -16 12 -9 -5 6 -19 6 -19
-12 -3 -18 17 -32 14 -32 -7 0 -6 5 -4 11 4 8 12 10 12 7 1 -5 -17 -35 -24
-44 -10 -8 14 -24 0 -17 -16 3 -8 1 -15 -5 -15 -6 0 -12 6 -15 13 -2 6 -8 9
-12 5 -4 -4 -2 -15 6 -25 12 -15 12 -16 -1 -8 -20 12 -41 15 -35 5 3 -4 -3
-14 -12 -21 -14 -12 -15 -11 -9 11 l8 25 -17 -23 c-9 -12 -21 -20 -26 -17 -5
4 -6 -2 -2 -12 3 -10 3 -15 -2 -11 -4 4 -14 0 -20 -9 -11 -15 -15 -16 -31 -3
-18 14 -18 14 -4 -4 14 -18 13 -19 -3 -13 -12 5 -17 1 -17 -13 0 -10 -5 -22
-12 -26 -6 -4 -8 -3 -4 4 3 6 1 14 -5 18 -7 4 -9 3 -6 -3 6 -10 -19 -28 -35
-25 -4 1 -5 -5 -1 -14 3 -9 0 -14 -8 -12 -8 2 -13 -4 -11 -14 1 -9 -3 -20 -9
-24 -8 -5 -10 -2 -5 7 4 8 1 6 -7 -4 -9 -10 -19 -18 -24 -18 -4 0 -7 -7 -5
-16 2 -10 -1 -12 -9 -7 -9 5 -10 2 -6 -10 4 -9 3 -15 -1 -13 -4 3 -13 -1 -20
-9 -10 -10 -10 -14 -1 -14 17 0 4 -11 -16 -14 -23 -3 -35 -27 -24 -47 6 -12 4
-19 -6 -22 -10 -4 -12 -1 -9 11 5 13 4 14 -4 3 -5 -7 -16 -18 -23 -23 -11 -8
-10 -9 3 -5 9 3 19 0 22 -8 3 -9 -1 -12 -15 -10 -16 3 -18 1 -11 -8 8 -9 5
-20 -10 -37 l-20 -25 16 27 c14 23 14 27 1 22 -14 -6 -20 -25 -16 -48 1 -5 -5
-16 -14 -26 -11 -13 -13 -20 -5 -25 8 -5 8 -11 -1 -21 -6 -7 -15 -11 -20 -8
-5 3 -9 1 -9 -5 0 -5 8 -12 18 -14 16 -4 16 -5 0 -6 -10 0 -18 -5 -18 -11 0
-5 8 -6 17 -3 15 6 16 5 3 -9 -8 -9 -19 -13 -25 -10 -5 3 -1 -5 10 -18 11 -13
15 -20 8 -17 -15 9 -21 -16 -19 -79 1 -38 -2 -50 -11 -47 -7 3 -10 10 -6 16 3
5 1 7 -4 4 -6 -4 -8 -18 -5 -32 4 -22 7 -24 21 -13 14 11 14 11 4 -3 -7 -9 -9
-20 -5 -24 4 -5 -2 -5 -13 -1 -17 6 -16 4 5 -20 l25 -28 -27 17 c-16 10 -28
16 -28 14 0 -7 37 -47 41 -44 2 1 -2 -4 -10 -11 -14 -11 -9 -16 14 -13 6 1 1
-6 -9 -14 -11 -8 -15 -15 -8 -15 6 0 9 -8 6 -17 -5 -15 -4 -15 4 -3 6 8 8 18
6 22 -3 4 0 8 6 8 15 0 3 -39 -18 -63 -9 -10 -12 -18 -7 -17 27 6 37 0 26 -14
-9 -11 -9 -16 0 -22 8 -5 9 -3 4 6 -5 8 -4 11 3 7 11 -8 5 -44 -12 -67 -7 -10
-4 -9 10 2 19 16 20 16 21 -3 1 -10 -2 -17 -6 -15 -15 10 -7 -29 8 -41 12 -9
18 -9 24 0 6 8 7 7 4 -3 -2 -8 -10 -14 -16 -13 -6 2 -11 -2 -11 -7 0 -6 6 -10
13 -10 8 0 13 -10 13 -22 -1 -15 4 -22 14 -20 11 3 10 -2 -4 -17 -11 -12 -15
-21 -10 -21 5 0 3 -4 -4 -9 -11 -7 -11 -9 1 -14 11 -4 15 0 12 14 -2 11 0 17
5 14 5 -3 7 -19 5 -36 -4 -27 -2 -30 15 -26 11 3 18 1 14 -4 -3 -5 -13 -9 -22
-10 -10 0 -12 -3 -5 -6 10 -3 10 -10 1 -26 -10 -21 -10 -21 7 -7 17 14 17 14
7 -7 -9 -16 -9 -24 0 -29 7 -5 8 -2 3 7 -7 12 -6 12 6 0 12 -12 12 -14 0 -19
-10 -3 -7 -8 10 -18 13 -7 18 -13 12 -14 -7 0 -13 -8 -13 -17 0 -15 2 -16 10
-3 5 8 10 10 10 4 0 -6 -3 -14 -7 -18 -4 -3 -7 -24 -8 -45 -1 -30 2 -38 13
-34 11 5 11 7 0 15 -11 8 -11 9 0 6 8 -2 13 -8 13 -13 0 -6 7 -17 15 -26 8 -9
11 -19 7 -22 -14 -14 -9 -57 7 -57 9 0 11 -3 5 -8 -5 -4 -10 -24 -10 -44 -1
-21 1 -35 4 -33 2 3 12 -7 21 -23 12 -18 14 -31 7 -39 -6 -8 -6 -13 0 -13 6 0
9 -12 8 -28 -2 -36 5 -53 19 -45 6 3 6 1 -1 -8 -16 -16 -17 -29 -2 -29 5 0 7
6 3 12 -5 10 -4 10 6 1 8 -7 14 -21 15 -32 1 -18 0 -18 -24 -4 l-26 16 27 -25
c22 -20 25 -27 15 -38 -10 -10 -9 -11 2 -5 11 6 13 3 9 -11 -3 -11 1 -25 9
-32 7 -7 11 -18 7 -23 -9 -15 -12 -59 -4 -54 5 3 10 -2 14 -10 3 -8 0 -15 -6
-15 -6 0 -8 -3 -5 -6 4 -4 14 -1 24 7 15 13 15 12 6 -5 -6 -10 -8 -27 -6 -36
3 -10 0 -21 -6 -24 -6 -4 -11 -13 -11 -19 0 -7 4 -6 10 3 5 8 12 11 16 7 4 -3
2 -13 -4 -20 -9 -10 -8 -14 3 -14 8 0 12 4 9 8 -2 4 0 10 5 13 5 3 7 -11 4
-32 -3 -27 -1 -33 6 -22 7 9 11 10 11 3 0 -7 -8 -17 -17 -22 -11 -6 -13 -11
-5 -11 8 0 10 -5 6 -12 -6 -10 -4 -10 8 0 14 11 15 9 8 -22 -4 -18 -4 -40 0
-47 5 -7 7 -21 5 -31 -3 -12 0 -16 7 -12 7 5 9 2 5 -9 -3 -9 -1 -19 5 -23 7
-4 8 -3 4 4 -4 7 -2 12 3 12 12 0 15 -13 4 -23 -3 -4 -8 -18 -9 -32 -2 -20 2
-25 19 -26 21 0 21 -1 2 -9 -14 -6 -16 -9 -5 -10 8 -2 17 -2 20 -2 3 0 5 -14
5 -31 0 -21 4 -31 13 -29 8 1 11 -2 7 -8 -3 -6 -11 -8 -16 -5 -5 4 -9 1 -9 -4
0 -10 13 -15 32 -12 8 1 5 -20 -6 -38 -6 -9 -5 -12 1 -8 6 4 17 -1 24 -10 12
-15 12 -16 -5 -10 -15 6 -17 5 -8 -6 7 -8 8 -18 4 -22 -4 -5 1 -5 11 -2 10 4
16 3 12 -2 -3 -5 -2 -11 2 -14 5 -2 3 -3 -2 -1 -6 1 -11 -8 -12 -20 0 -11 1
-15 4 -8 6 14 29 16 38 2 4 -6 -1 -7 -11 -3 -11 4 -15 3 -11 -4 4 -6 1 -14 -5
-17 -7 -3 -2 -3 12 1 22 5 23 4 11 -11 -10 -12 -10 -16 -1 -16 10 0 10 -3 1
-14 -10 -12 -9 -14 6 -10 11 2 25 -6 37 -23 11 -14 15 -23 9 -20 -6 4 -13 0
-16 -7 -8 -19 32 -69 49 -62 7 3 16 0 20 -6 4 -7 3 -8 -4 -4 -7 4 -12 2 -12
-3 0 -6 6 -11 13 -11 8 0 22 -18 33 -39 10 -22 22 -37 25 -35 4 2 6 -6 5 -19
-1 -14 5 -22 16 -22 9 0 20 -4 25 -9 4 -5 3 -6 -4 -2 -7 4 -13 2 -13 -3 0 -6
6 -11 14 -11 21 0 40 -26 25 -36 -7 -4 -9 -3 -5 4 3 6 2 13 -3 16 -5 4 -8 -2
-7 -11 2 -13 10 -17 31 -15 26 4 27 3 12 -13 -23 -22 -22 -23 12 -21 19 1 27
-2 24 -10 -5 -14 31 -54 48 -54 5 0 -2 11 -17 23 -19 17 -24 26 -15 31 6 4 10
3 9 -3 -2 -6 11 -22 27 -36 17 -15 24 -24 18 -20 -7 3 -13 1 -13 -6 0 -7 8 -9
21 -6 17 5 18 3 8 -9 -7 -8 -8 -14 -3 -13 18 3 37 -1 31 -8 -10 -9 31 -36 43
-28 6 3 7 -1 4 -9 -7 -19 7 -21 24 -4 16 16 16 -4 0 -21 -10 -11 -10 -13 0 -7
6 4 12 2 12 -4 0 -6 5 -8 10 -5 6 4 7 12 3 18 -4 7 0 6 10 -2 19 -15 23 -26 5
-15 -7 4 -8 3 -4 -5 6 -9 11 -9 24 1 12 10 14 10 8 1 -4 -8 -2 -13 6 -13 9 0
9 -3 -2 -10 -8 -5 -10 -10 -4 -10 5 0 15 5 21 11 13 13 33 4 33 -14 0 -7 -4
-6 -10 3 -5 8 -11 12 -14 9 -3 -3 5 -16 18 -28 18 -17 26 -19 31 -10 6 8 4 10
-5 4 -9 -6 -11 -4 -5 5 6 9 4 11 -5 5 -9 -6 -11 -4 -6 4 6 9 12 9 25 -3 10 -9
21 -13 24 -10 4 4 10 -1 13 -10 5 -14 9 -15 15 -4 7 10 9 8 10 -7 1 -11 1 -23
1 -26 -1 -3 6 -6 13 -6 11 0 12 4 4 13 -8 9 -5 11 11 7 12 -3 19 -11 17 -18
-3 -6 1 -12 9 -12 7 0 11 5 8 11 -3 6 2 2 12 -9 16 -20 16 -20 11 5 -6 24 -5
24 8 6 8 -10 12 -24 8 -30 -3 -6 -3 -8 1 -4 5 4 19 3 32 -2 19 -8 22 -6 18 8
-5 16 -5 16 6 0 11 -19 57 -48 46 -30 -3 5 1 12 9 16 8 3 17 1 21 -5 4 -7 10
-6 19 1 10 8 15 8 21 -1 4 -7 3 -9 -3 -6 -12 8 -39 -20 -29 -30 3 -3 6 -1 6 6
0 9 9 12 25 9 16 -3 22 -1 19 6 -3 6 1 3 8 -6 13 -15 15 -15 26 0 7 9 11 13 8
7 -2 -5 2 -16 10 -23 12 -11 14 -10 14 3 0 8 5 15 11 15 6 0 8 -7 5 -16 -3 -8
-2 -12 3 -9 5 3 12 1 16 -5 3 -5 11 -10 18 -10 6 0 2 6 -9 14 -13 10 -14 14
-4 13 8 -2 21 -6 28 -10 6 -5 12 -5 12 0 0 4 18 8 39 8 33 0 38 -3 31 -16 -6
-11 -5 -16 5 -16 8 0 12 5 8 10 -3 5 4 6 17 2 14 -4 20 -3 17 3 -4 5 4 8 16 8
12 -1 27 2 33 6 7 5 18 2 28 -7 12 -12 16 -13 16 -3 0 10 3 10 9 -2 6 -8 7
-18 4 -24 -4 -5 -1 -6 6 -2 7 5 10 14 7 22 -3 7 -1 16 5 19 5 4 13 -4 18 -17
9 -21 10 -21 11 -3 1 11 4 14 7 8 6 -16 33 -17 33 -1 0 6 7 3 16 -8 8 -10 12
-13 8 -5 -5 11 -3 13 11 7 15 -5 16 -4 6 8 -9 11 -9 16 0 22 8 4 9 3 5 -4 -4
-7 -1 -12 8 -12 9 0 16 6 16 13 0 9 3 8 9 -2 6 -9 20 -12 40 -9 18 3 34 1 37
-3 2 -5 11 -6 19 -3 8 4 13 10 10 14 -3 5 -1 12 5 15 6 4 9 3 8 -2 -2 -4 2 -8
7 -8 5 0 9 3 8 7 -4 12 29 1 38 -13 7 -11 11 -12 18 -1 4 8 11 13 15 13 7 -1
15 0 31 4 6 1 16 3 23 3 6 1 12 7 12 13 0 8 -4 8 -13 0 -10 -8 -14 -7 -14 3 0
17 19 15 41 -3 14 -12 16 -11 9 5 -6 17 -5 18 12 4 17 -14 18 -13 12 3 -4 11
-3 16 3 12 14 -9 52 4 45 15 -3 5 -1 11 4 15 6 3 8 -3 6 -13 -2 -12 3 -18 18
-20 17 -1 19 1 7 8 -13 8 -13 11 -1 22 10 10 12 10 7 0 -4 -6 -3 -12 1 -12 5
0 15 6 22 12 11 10 13 10 7 1 -4 -7 -2 -13 3 -13 6 0 11 5 11 10 0 6 5 10 11
10 5 0 7 -6 3 -12 -3 -7 6 1 21 17 14 17 23 23 19 15 -12 -22 -14 -41 -3 -34
5 3 7 10 4 15 -4 5 -2 9 4 9 5 0 12 8 14 18 4 16 5 16 6 -1 0 -10 6 -15 11
-12 6 4 7 12 3 18 -5 9 -3 9 8 1 19 -14 45 -11 41 5 -2 9 5 11 20 6 13 -3 19
-3 13 2 -5 4 -11 13 -12 20 -3 15 26 10 39 -8 7 -11 9 -9 5 7 -3 15 0 21 12
20 9 0 15 5 13 12 -1 8 2 11 8 7 6 -3 8 -11 5 -16 -4 -5 -1 -9 4 -9 6 0 11 6
11 14 0 8 9 12 25 11 14 -2 23 1 19 6 -3 5 -10 6 -16 3 -7 -4 -8 -2 -4 4 4 6
14 8 23 5 9 -4 14 -2 10 3 -8 14 35 15 52 1 11 -9 13 -9 8 0 -4 6 -3 14 2 18
6 3 7 13 4 23 -3 9 -2 14 2 9 5 -4 18 1 29 10 12 10 15 11 9 3 -7 -8 -13 -19
-13 -25 0 -5 5 -2 11 8 6 9 15 15 21 11 5 -4 5 4 -2 17 -7 13 -9 21 -5 17 5
-4 14 -3 21 3 8 7 14 6 20 -2 4 -7 3 -9 -4 -5 -6 3 -13 2 -16 -3 -8 -13 19 -8
36 7 8 6 18 8 23 4 4 -4 3 2 -3 14 -9 16 -8 21 3 21 8 0 12 -4 9 -9 -3 -4 0
-8 5 -8 6 0 11 6 11 14 0 7 10 16 21 19 16 4 20 11 15 24 -5 16 -4 15 10 -2
16 -20 16 -20 11 3 -4 18 -3 21 8 12 9 -8 14 -5 18 10 3 12 13 20 26 20 12 0
25 11 33 28 9 16 20 26 31 24 11 -2 15 2 11 12 -3 8 0 17 7 22 7 4 10 3 5 -4
-4 -6 1 -10 13 -9 14 1 17 5 10 13 -6 8 -2 11 16 9 13 -2 24 0 23 3 -1 4 1 17
6 29 6 20 10 21 29 11 21 -11 21 -10 7 7 -14 17 -13 18 10 12 24 -6 24 -5 6 8
-19 15 -19 15 5 16 13 1 28 1 33 0 5 -1 3 5 -4 14 -11 13 -10 15 4 9 9 -3 16
-1 16 6 0 6 5 8 11 4 7 -4 6 2 -2 17 -11 22 -11 23 4 11 14 -12 16 -11 12 7
-3 15 0 18 12 14 11 -4 14 -2 9 5 -4 7 1 10 14 7 18 -3 19 -1 8 18 -11 21 -10
21 7 7 15 -12 17 -12 10 -1 -5 9 -2 19 10 28 11 7 15 13 11 13 -5 0 -3 6 4 14
6 8 17 13 25 10 7 -3 16 0 21 7 4 7 3 10 -4 5 -12 -7 -10 20 3 31 4 4 5 2 1
-4 -4 -7 -2 -13 5 -13 7 0 9 8 6 21 -4 16 -3 18 8 9 9 -8 15 -8 20 0 3 6 11 7
17 4 7 -4 8 -2 4 5 -4 6 -12 9 -17 6 -5 -4 -9 -2 -9 3 0 5 10 14 23 21 13 7
28 21 35 31 10 17 9 18 -6 13 -13 -4 -14 -3 -6 6 6 7 20 13 32 14 13 1 19 7
17 19 -2 10 3 24 11 32 10 11 11 16 1 19 -7 3 -4 6 7 6 13 1 16 6 12 17 -6 15
-4 15 10 3 16 -13 16 -12 5 8 -10 20 -9 22 6 16 16 -6 16 -5 4 10 -12 15 -12
17 4 11 14 -6 16 -4 10 6 -6 10 -4 12 8 7 12 -4 15 -1 12 14 -3 14 0 19 9 16
15 -6 18 23 3 41 -7 9 -5 11 9 5 17 -6 17 -5 5 10 -14 18 -2 24 15 7 6 -6 15
-5 24 1 13 9 13 10 -2 6 -29 -10 -27 19 4 52 22 23 29 39 25 57 -3 20 -2 22
10 13 11 -10 12 -8 6 7 -5 15 -4 17 8 9 8 -5 7 -3 -3 6 -16 15 -16 18 -2 23 9
3 14 12 11 20 -3 8 1 13 10 12 9 0 17 7 18 16 2 9 -2 15 -8 14 -7 -2 -9 -1 -4
1 4 3 5 8 2 13 -3 4 5 6 17 3 20 -4 21 -3 6 7 -10 6 -18 16 -18 23 0 7 4 6 10
-3 8 -13 11 -13 22 -1 11 12 10 13 -2 7 -8 -4 -6 0 5 10 16 13 17 16 3 11 -10
-3 -20 -1 -24 5 -4 6 -3 8 3 5 6 -4 17 1 24 10 12 15 12 16 -5 10 -16 -6 -17
-5 -6 8 7 8 16 12 21 9 5 -3 6 3 2 12 -5 14 -3 16 13 11 18 -7 18 -6 2 7 -23
17 -23 27 -1 19 16 -6 16 -4 -1 22 -13 20 -14 26 -4 18 8 -7 18 -10 21 -6 4 3
-1 12 -11 20 -9 8 -11 11 -3 7 11 -5 13 -3 8 10 -4 11 -1 19 11 24 9 4 18 14
20 22 3 12 1 13 -9 2 -7 -6 -17 -12 -22 -12 -5 0 -1 7 7 16 9 8 13 20 10 25
-3 6 3 13 15 16 11 3 18 9 15 14 -3 5 -9 7 -14 4 -5 -3 -12 0 -16 6 -4 8 -3 9
4 5 6 -3 16 3 22 14 6 11 8 20 4 20 -4 0 1 9 11 20 10 11 13 20 7 20 -7 0 -12
-5 -12 -12 0 -21 -13 2 -16 28 -3 25 -2 25 11 8 16 -22 16 -22 19 29 2 28 -1
36 -11 32 -8 -2 -11 0 -8 5 3 6 13 10 21 10 8 0 14 4 14 10 0 5 -6 7 -13 4 -8
-3 -14 2 -14 11 0 9 5 14 12 12 10 -4 10 48 0 81 -5 15 -2 28 7 25 13 -5 16
26 3 37 -7 6 -11 20 -8 30 3 11 0 27 -7 35 -11 14 -7 19 13 16 4 0 7 6 7 15 0
8 -4 13 -9 9 -5 -3 -12 -1 -15 4 -4 5 -1 13 5 17 8 5 9 3 4 -7 -8 -12 -6 -12
8 0 20 16 13 32 -11 25 -10 -4 -13 -2 -7 3 6 4 12 15 13 23 10 42 10 50 1 45
-5 -4 -6 -12 -3 -18 4 -7 1 -7 -7 1 -12 11 -11 16 6 29 16 13 17 15 3 10 -10
-4 -18 -2 -18 3 0 6 3 10 8 10 4 0 7 16 8 36 0 19 -2 31 -5 26 -3 -6 -12 -4
-19 4 -10 11 -10 14 0 14 6 0 3 7 -8 16 -19 15 -19 16 1 10 20 -6 20 -6 1 9
-11 8 -15 15 -9 15 6 0 8 11 5 25 -2 14 -9 22 -14 19 -5 -3 -9 0 -7 7 4 30 -1
50 -11 44 -7 -4 -9 6 -8 26 1 19 -3 34 -10 37 -6 2 -12 15 -12 28 0 14 -4 22
-10 19 -13 -8 -13 1 1 27 8 15 8 19 0 14 -6 -4 -11 -2 -11 5 0 8 -4 8 -15 -1
-13 -11 -14 -10 -10 3 4 8 1 18 -5 22 -8 5 -8 11 -1 19 8 9 5 19 -10 34 -11
13 -15 22 -8 22 7 0 9 3 6 6 -4 4 -13 1 -22 -6 -17 -14 -19 -7 -5 20 7 13 5
21 -8 31 -15 13 -16 12 -3 -3 7 -10 9 -18 3 -18 -14 0 -25 32 -13 40 6 3 0 12
-12 19 -20 13 -21 13 -9 -2 11 -12 11 -17 0 -23 -7 -4 -10 -4 -6 1 4 4 3 14
-3 21 -9 10 -7 15 4 20 13 4 9 12 -19 36 -21 19 -40 28 -50 24 -14 -5 -15 -4
-4 9 8 10 9 15 1 15 -6 0 -11 7 -11 16 0 8 -4 12 -10 9 -5 -3 -10 3 -10 14 0
19 -11 26 -34 22 -5 -1 -3 5 4 14 7 8 10 18 6 22 -3 3 -6 1 -6 -5 0 -7 -5 -12
-11 -12 -6 0 -8 7 -5 16 5 12 1 14 -16 8 -21 -6 -22 -5 -8 11 9 11 10 16 3 11
-7 -4 -13 -2 -13 3 0 6 -5 11 -11 11 -5 0 -8 -4 -5 -8 3 -5 -2 -9 -10 -9 -10
0 -11 4 -4 11 13 13 13 29 0 21 -5 -3 -10 -1 -10 5 0 6 -4 8 -10 5 -5 -3 -10
-1 -10 5 0 6 -5 8 -12 4 -10 -6 -10 -4 0 8 10 13 10 17 -3 22 -10 4 -14 2 -9
-5 3 -6 -12 0 -34 12 -22 13 -39 25 -37 28 3 2 15 -3 29 -12 22 -15 25 -15 38
1 11 15 11 15 -2 5 -12 -9 -19 -8 -32 1 -10 7 -15 16 -11 20 4 4 0 4 -10 0
-10 -3 -17 -1 -17 6 0 6 -4 8 -10 5 -5 -3 -10 -1 -10 4 0 6 -5 11 -11 11 -5 0
-7 -5 -3 -12 5 -7 3 -8 -5 -4 -7 5 -17 19 -22 33 -7 20 -12 23 -23 14 -10 -9
-15 -8 -19 4 -4 9 -13 12 -24 8 -16 -5 -16 -4 1 9 11 9 21 23 22 33 1 9 -1 14
-4 10 -4 -4 -7 -11 -7 -16 0 -5 -3 -9 -7 -9 -5 0 -10 0 -13 0 -3 0 2 12 12 27
19 29 26 56 12 47 -5 -3 -7 -9 -5 -13 3 -4 -1 -8 -9 -8 -13 0 -13 3 -1 16 7 9
11 22 9 29 -3 6 0 12 7 12 6 0 8 -4 5 -10 -3 -5 -1 -10 5 -10 7 0 9 7 6 16 -5
12 -2 15 9 10 10 -3 13 -2 10 5 -4 5 -16 7 -28 4 -22 -5 -22 -5 0 6 21 11 22
13 5 26 -9 8 -12 12 -5 9 18 -10 25 12 7 22 -15 8 -15 10 0 15 12 5 15 3 10
-6 -4 -6 -3 -9 1 -4 13 12 13 58 -1 47 -7 -7 -10 -3 -9 12 1 12 10 25 21 29
18 7 18 8 -1 9 -18 1 -19 1 -2 11 19 11 23 29 6 29 -5 0 -8 -4 -5 -8 3 -5 -2
-9 -11 -9 -13 0 -11 4 6 18 22 18 24 38 6 51 -6 5 -5 8 3 8 6 0 12 9 12 21 0
15 5 19 16 15 10 -4 13 -2 7 7 -11 18 -14 49 -4 42 5 -3 13 -1 16 5 4 6 1 9
-6 8 -6 -2 -14 3 -17 11 -3 9 0 11 9 7 8 -4 5 0 -6 10 -20 16 -20 16 5 11 24
-6 24 -5 6 8 -18 14 -18 15 -2 15 9 0 14 5 11 10 -4 6 -11 7 -17 4 -7 -5 -8
-2 -4 5 5 7 15 10 25 7 14 -5 13 -4 -1 8 -21 16 -24 30 -5 23 15 -6 17 27 2
40 -4 5 -5 3 -1 -4 3 -6 2 -14 -3 -17 -5 -4 -8 2 -6 11 1 10 9 17 19 15 9 -2
16 2 16 8 0 6 -3 9 -7 7 -5 -3 -17 -1 -28 4 -15 6 -16 8 -4 8 22 1 27 18 18
56 -4 17 -7 26 -8 20 -1 -5 -6 -3 -11 5 -13 20 -12 30 1 30 5 0 8 -4 5 -8 -3
-5 1 -9 9 -9 13 0 12 3 -1 18 -9 10 -20 16 -24 14 -5 -3 -7 2 -6 11 1 8 9 20
17 25 12 7 11 9 -2 9 -11 0 -17 9 -17 28 0 42 -7 64 -24 76 -8 6 -13 16 -11
23 2 6 -5 16 -16 22 -21 12 -36 46 -32 74 1 12 -4 17 -20 17 -18 0 -19 2 -9
15 15 18 -1 20 -19 3 -11 -10 -12 -10 -7 -1 4 7 9 22 11 32 3 17 0 19 -21 11
-15 -6 -23 -6 -20 -1 4 5 0 11 -6 13 -7 3 -13 13 -13 24 0 10 -7 19 -15 20
-34 2 -40 5 -40 15 0 8 6 7 18 -2 15 -13 16 -12 4 3 -13 17 -47 14 -36 -3 3
-5 -2 -6 -12 -2 -15 5 -15 7 0 15 9 5 16 14 16 21 0 8 -4 7 -9 -2 -8 -12 -12
-10 -22 11 -10 23 -14 25 -26 12 -8 -8 -20 -14 -26 -14 -8 0 -7 3 2 9 11 7 9
10 -8 16 -11 3 -21 11 -21 16 0 6 5 7 12 3 7 -5 8 -3 3 5 -5 9 -10 10 -18 2
-15 -15 -30 -14 -21 1 4 6 3 8 -4 4 -5 -3 -12 0 -15 6 -3 10 -8 9 -22 -2 -17
-14 -18 -13 -12 2 3 10 1 20 -5 24 -7 4 -8 3 -4 -4 4 -7 2 -12 -3 -12 -6 0
-11 4 -11 8 0 4 -10 8 -21 9 -21 2 -21 1 -3 -13 18 -13 17 -13 -6 -5 -16 6
-24 15 -22 27 2 18 2 18 -9 1 -10 -18 -12 -18 -31 -1 -13 12 -18 14 -16 5 2
-7 -3 -16 -10 -18 -8 -3 -10 1 -5 14 6 16 5 16 -10 4 -15 -12 -19 -12 -31 4
-12 17 -14 17 -34 -3 -17 -17 -21 -18 -26 -6 -3 9 -10 12 -16 9 -6 -4 -7 -11
-4 -17 4 -7 2 -8 -5 -4 -6 4 -9 11 -6 16 3 5 0 12 -6 16 -8 5 -9 3 -4 -6z m92
-7 c-4 -3 -1 -13 6 -21 11 -13 9 -14 -10 -1 -16 9 -19 16 -10 21 15 9 23 10
14 1z m-275 -45 c-7 -7 -12 -8 -12 -2 0 6 3 14 7 17 3 4 9 5 12 2 2 -3 -1 -11
-7 -17z m508 -19 c0 -5 -4 -9 -8 -9 -5 0 -9 7 -9 15 0 8 4 12 9 9 4 -3 8 -9 8
-15z m107 -51 c-3 -8 -6 -5 -6 6 -1 11 2 17 5 13 3 -3 4 -12 1 -19z m-934 -42
c4 -11 1 -13 -10 -9 -12 5 -14 3 -8 -8 4 -8 5 -11 0 -7 -4 4 -14 3 -21 -3 -8
-7 -14 -6 -20 2 -4 7 -3 9 3 6 6 -4 18 2 28 13 22 24 21 24 28 6z m1032 -16
c-3 -5 -12 -10 -18 -10 -7 0 -6 4 3 10 19 12 23 12 15 0z m-1465 -170 c0 -5
-5 -10 -11 -10 -5 0 -7 5 -4 10 3 6 8 10 11 10 2 0 4 -4 4 -10z m1646 -95 c1
-8 -2 -15 -6 -15 -5 0 -8 9 -7 20 1 21 10 18 13 -5z m49 -214 c3 -5 2 -12 -3
-15 -5 -3 -9 1 -9 9 0 17 3 19 12 6z m-2595 -285 c0 -3 -4 -8 -10 -11 -5 -3
-10 -1 -10 4 0 6 5 11 10 11 6 0 10 -2 10 -4z m-510 -403 c0 -3 -7 -3 -15 1
-8 3 -15 0 -15 -6 0 -6 -3 -9 -6 -5 -11 10 6 26 21 20 8 -3 15 -7 15 -10z
m-177 -172 c3 -13 1 -18 -9 -14 -7 2 -10 11 -7 19 7 19 10 18 16 -5z m-84
-194 c0 -9 -2 -8 -6 1 -2 6 -10 9 -15 6 -7 -4 -8 -2 -4 5 9 13 26 5 25 -12z
m3711 -62 c13 -14 20 -25 16 -25 -4 0 -18 11 -32 25 -14 14 -21 25 -16 25 5 0
19 -11 32 -25z m99 -168 c8 -10 7 -14 -2 -14 -8 0 -14 6 -14 14 0 7 1 13 2 13
2 0 8 -6 14 -13z m-3852 -243 c-3 -3 -12 -4 -19 -1 -8 3 -5 6 6 6 11 1 17 -2
13 -5z m3948 -3 c3 -5 2 -12 -3 -15 -5 -3 -9 1 -9 9 0 17 3 19 12 6z m-3925
-141 c0 -5 -2 -10 -4 -10 -3 0 -8 5 -11 10 -3 6 -1 10 4 10 6 0 11 -4 11 -10z
m3970 -19 c7 -14 7 -22 -2 -27 -7 -4 -8 -3 -4 4 4 7 2 12 -4 12 -6 0 -9 4 -6
9 4 5 0 12 -6 14 -10 4 -10 6 -1 6 7 1 17 -8 23 -18z m27 -307 c-3 -3 -12 -4
-19 -1 -8 3 -5 6 6 6 11 1 17 -2 13 -5z m-3890 -70 c-3 -3 -12 -4 -19 -1 -8 3
-5 6 6 6 11 1 17 -2 13 -5z m3870 -139 c0 -8 -4 -12 -9 -9 -5 3 -6 10 -3 15 9
13 12 11 12 -6z m-3814 -70 c-3 -9 -8 -14 -10 -11 -3 3 -2 9 2 15 9 16 15 13
8 -4z m3793 -20 c-1 -8 -5 -17 -8 -21 -5 -4 -4 16 1 34 3 9 9 -1 7 -13z
m-3721 -334 c-3 -5 2 -17 11 -25 8 -9 11 -16 5 -16 -13 0 -32 35 -24 44 9 9
15 7 8 -3z m80 -301 c3 -5 2 -10 -4 -10 -5 0 -13 5 -16 10 -3 6 -2 10 4 10 5
0 13 -4 16 -10z m12 -46 c-9 -9 -28 6 -21 18 4 6 10 6 17 -1 6 -6 8 -13 4 -17z
m17 -85 c-3 -5 -11 -9 -17 -8 -8 0 -8 2 1 6 10 4 10 8 0 21 -12 15 -11 16 4 3
10 -7 15 -17 12 -22z m3251 -99 c-3 -5 -11 -10 -16 -10 -6 0 -7 5 -4 10 3 6
11 10 16 10 6 0 7 -4 4 -10z m-50 -50 c3 -5 1 -10 -4 -10 -6 0 -11 5 -11 10 0
6 2 10 4 10 3 0 8 -4 11 -10z m-3038 -256 c-3 -4 -2 -16 4 -27 8 -14 8 -18 0
-13 -6 4 -16 16 -21 27 -9 15 -7 19 6 19 10 0 14 -3 11 -6z m2693 -120 c0 -8
-19 -13 -24 -6 -3 5 1 9 9 9 8 0 15 -2 15 -3z m-295 -213 c3 -5 2 -12 -3 -15
-5 -3 -9 1 -9 9 0 17 3 19 12 6z m-115 -87 c0 -8 -19 -13 -24 -6 -3 5 1 9 9 9
8 0 15 -2 15 -3z m-246 -112 c3 -5 -1 -9 -9 -9 -8 0 -12 4 -9 9 3 4 7 8 9 8 2
0 6 -4 9 -8z m-1214 -92 c0 -5 -5 -10 -11 -10 -5 0 -7 5 -4 10 3 6 8 10 11 10
2 0 4 -4 4 -10z m820 -20 c0 -5 -4 -10 -10 -10 -5 0 -10 5 -10 10 0 6 5 10 10
10 6 0 10 -4 10 -10z"/>
<path d="M3754 4719 c-4 -7 -3 -9 4 -5 5 3 13 0 15 -6 4 -9 6 -10 6 -1 1 17
-16 25 -25 12z"/>
<path d="M3857 4604 c-11 -11 16 -53 34 -51 10 1 15 5 13 9 -3 5 -9 6 -14 3
-11 -7 -32 30 -23 39 3 3 4 6 1 6 -2 0 -7 -3 -11 -6z"/>
<path d="M3940 4366 c0 -2 7 -7 16 -10 8 -3 12 -2 9 4 -6 10 -25 14 -25 6z"/>
<path d="M1586 4298 c3 -4 9 -8 15 -8 5 0 9 4 9 8 0 5 -7 9 -15 9 -8 0 -12 -4
-9 -9z"/>
<path d="M3933 3915 c0 -8 4 -12 9 -9 4 3 8 9 8 15 0 5 -4 9 -8 9 -5 0 -9 -7
-9 -15z"/>
<path d="M1190 3800 c-9 -6 -10 -10 -3 -10 6 0 15 5 18 10 8 12 4 12 -15 0z"/>
<path d="M1250 3799 c0 -5 5 -7 10 -4 6 3 10 8 10 11 0 2 -4 4 -10 4 -5 0 -10
-5 -10 -11z"/>
<path d="M513 3038 c3 -9 1 -18 -6 -21 -6 -2 -4 -6 5 -10 13 -4 16 -1 13 15
-3 11 -7 23 -11 27 -4 3 -4 -2 -1 -11z"/>
<path d="M4426 2928 c3 -5 10 -6 15 -3 13 9 11 12 -6 12 -8 0 -12 -4 -9 -9z"/>
<path d="M573 2487 c0 -8 6 -14 14 -14 9 0 10 4 2 14 -6 7 -12 13 -14 13 -1 0
-2 -6 -2 -13z"/>
<path d="M4560 2346 c0 -2 8 -10 18 -17 15 -13 16 -12 3 4 -13 16 -21 21 -21
13z"/>
<path d="M4560 2226 c0 -2 8 -10 18 -17 15 -13 16 -12 3 4 -13 16 -21 21 -21
13z"/>
<path d="M665 2130 c-4 -6 -3 -10 2 -9 20 3 27 -2 13 -11 -9 -6 -10 -10 -3
-10 19 0 24 17 9 29 -10 9 -16 9 -21 1z"/>
<path d="M716 1922 c-3 -5 1 -9 9 -9 8 0 12 4 9 9 -3 4 -7 8 -9 8 -2 0 -6 -4
-9 -8z"/>
<path d="M4520 1876 c0 -2 8 -10 18 -17 15 -13 16 -12 3 4 -13 16 -21 21 -21
13z"/>
<path d="M783 1645 c0 -8 4 -12 9 -9 5 3 6 10 3 15 -9 13 -12 11 -12 -6z"/>
<path d="M4399 1493 c-13 -17 -13 -17 6 -3 11 8 22 16 24 17 2 2 0 3 -6 3 -6
0 -17 -8 -24 -17z"/>
<path d="M4326 1352 c-3 -5 1 -9 9 -9 8 0 12 4 9 9 -3 4 -7 8 -9 8 -2 0 -6 -4
-9 -8z"/>
<path d="M940 1040 c0 -5 5 -10 11 -10 5 0 7 5 4 10 -3 6 -8 10 -11 10 -2 0
-4 -4 -4 -10z"/>
<path d="M4015 901 c-3 -5 -2 -12 3 -15 5 -3 9 1 9 9 0 17 -3 19 -12 6z"/>
<path d="M1024 822 c4 -3 14 -7 22 -8 9 -1 13 0 10 4 -4 3 -14 7 -22 8 -9 1
-13 0 -10 -4z"/>
<path d="M1116 692 c12 -8 28 -43 25 -55 -1 -5 3 -6 9 -2 13 8 -16 65 -33 65
-8 0 -9 -3 -1 -8z"/>
<path d="M3685 590 c-3 -5 -1 -10 4 -10 6 0 11 5 11 10 0 6 -2 10 -4 10 -3 0
-8 -4 -11 -10z"/>
<path d="M2883 163 c-7 -2 -13 -9 -13 -15 0 -7 5 -7 13 1 8 6 18 7 22 3 5 -4
5 -1 1 6 -4 6 -8 12 -9 11 -1 0 -8 -3 -14 -6z"/>
<path d="M2310 95 c-7 -9 -10 -18 -6 -22 3 -3 6 -1 6 6 0 7 4 10 9 6 5 -3 12
-1 15 4 11 17 -11 21 -24 6z"/>
<path d="M2530 100 c0 -5 5 -10 11 -10 5 0 7 5 4 10 -3 6 -8 10 -11 10 -2 0
-4 -4 -4 -10z"/>
</g>
</svg>
